<?xml version="1.0" standalone="no"?>
<!DOCTYPE svg PUBLIC "-//W3C//DTD SVG 20010904//EN"
 "http://www.w3.org/TR/2001/REC-SVG-20010904/DTD/svg10.dtd">
<svg version="1.0" xmlns="http://www.w3.org/2000/svg"
 width="1000.000000pt" height="1000.000000pt" viewBox="0 0 1000.000000 1000.000000"
 preserveAspectRatio="xMidYMid meet">
<metadata>
Created by potrace 1.11, written by Peter Selinger 2001-2013
</metadata>
<g transform="translate(0.000000,1000.000000) scale(0.100000,-0.100000)"
fill="#000000" stroke="none">
<path d="M0 5000 l0 -5000 5000 0 5000 0 0 5000 0 5000 -5000 0 -5000 0 0
-5000z m5478 2959 c632 -70 1042 -389 1227 -955 40 -119 77 -297 97 -454 19
-154 19 -2948 0 -3100 -90 -709 -386 -1132 -929 -1324 l-73 -25 -3 2232 -3
2232 -21 94 c-47 200 -138 331 -277 397 -132 62 -162 67 -478 71 l-287 5 6
-1619 c6 -1661 2 -1918 -33 -2151 -33 -228 -94 -430 -179 -597 -190 -374 -512
-610 -947 -694 -175 -34 -297 -41 -679 -41 l-369 0 0 419 0 419 348 4 c322 4
352 6 420 27 239 71 347 206 399 497 17 93 18 227 16 2337 l-3 2237 835 0
c531 0 871 -4 933 -11z"/>
</g>
</svg>
